<?xml version="1.0" encoding="utf-8" standalone="no"?><!-- Generator: Adobe Illustrator 16.0.0, SVG Export Plug-In . SVG Version: 6.00 Build 0)  --><svg xmlns="http://www.w3.org/2000/svg" xmlns:xlink="http://www.w3.org/1999/xlink" enable-background="new 0 0 283.464 425.215" fill="#000000" height="425.215px" id="Layer_1" version="1.1" viewBox="0 0 283.464 425.215" width="283.464px" x="0px" xml:space="preserve" y="0px">
<g id="change1">
	<path d="M141.734,0C63.454,0,0,63.458,0,141.737c-0.001,26.57,7.309,51.42,20.029,72.672l121.7,210.808   l121.797-210.957c12.657-21.216,19.938-46.018,19.938-72.521C283.468,63.457,220.014,0,141.734,0z M141.734,189.168   c-26.193,0-47.429-21.237-47.424-47.432c0-26.192,21.236-47.429,47.424-47.429c26.198,0,47.434,21.236,47.434,47.429   C189.167,167.932,167.932,189.168,141.734,189.168z" fill="#ffffff"/>
</g>
</svg>