<?xml version="1.0" encoding="UTF-8" standalone="no"?><svg xmlns="http://www.w3.org/2000/svg" xmlns:xlink="http://www.w3.org/1999/xlink" fill="#000000" height="907.13" stroke="#000000" stroke-linecap="square" stroke-miterlimit="10" width="828.66"><defs><clipPath id="a"><path d="M0 0V907.13H828.66V0Z"/></clipPath><clipPath clip-path="url(#a)" id="b"><path d="M-125.67 993.56h1080v-1080h-1080Zm0 0"/></clipPath><clipPath clip-path="url(#b)" id="c"><path d="M-125.67-86.44h1080v1080h-1080Zm0 0"/></clipPath></defs><g><g fill="#004aad" stroke="none"><path clip-path="url(#c)" d="M810.53 727.63H18.12C10.88 727.63 5 733.4 5 740.52v63.48c0 7.12 5.88 12.9 13.12 12.9H28.2c-2.22 2.31-3.59 5.41-3.59 8.84v63.48c0 7.12 5.88 12.9 13.12 12.9H790.92c7.25 0 13.12-5.77 13.12-12.9V825.75c0-3.43-1.37-6.53-3.59-8.84h10.08c7.25 0 13.12-5.78 13.12-12.9V740.52c0-7.12-5.88-12.9-13.12-12.9"/><path clip-path="url(#c)" d="M76.55 780.21L74.9 769.75H68.56v30.15l7.08 1.73v12.43H44.51V801.63l7-1.65V769.75H45.17l-1.65 10.46H31.33v-23.8H88.66v23.8Zm0 0" fill="#ffffff"/><path clip-path="url(#c)" d="M147.96 770.66v29.24l6.26 1.65v12.52h-27.1V801.54l3.71-1.65V789.85H116.91v10.05l3.79 1.65v12.52H93.6V801.54l6.26-1.65V770.66l-6.26-1.65v-12.6h27.1v12.6l-3.79 1.65v9.31h13.92v-9.31l-3.71-1.65v-12.6h27.1v12.6Zm0 0" fill="#ffffff"/><path clip-path="url(#c)" d="M200.34 776.59l-1.65-6.01H184.85v9.39h13.84v9.89H184.85v10.05h13.84l1.65-6.01h12.19v20.18h-50.9V801.54l6.26-1.65V770.66l-6.26-1.65v-12.6h50.82v20.18Zm0 0" fill="#ffffff"/><path clip-path="url(#c)" d="M299.09 776.59h-15.4l-1.65-6.01H270.67l-2.39 1.9v25.44l2.47 1.98h11.28l1.65-6.01h15.4v10.46c-1.92 1.65-3.87 3.28-5.85 4.9l-5.85 4.82H264.58l-13.26-11.04V767.03l12.77-10.62h23.8l11.2 9.33Zm0 0" fill="#ffffff"/><path clip-path="url(#c)" d="M360.78 770.66v29.24l6.26 1.65v12.52h-27.1V801.54l3.71-1.65V789.85H329.73v10.05l3.79 1.65v12.52h-27.1V801.54l6.26-1.65V770.66l-6.26-1.65v-12.6h27.1v12.6l-3.79 1.65v9.31h13.92v-9.31l-3.71-1.65v-12.6h27.1v12.6Zm0 0" fill="#ffffff"/><path clip-path="url(#c)" d="M396.77 784.91h7.33l-3.71-12.93Zm36.41 16.72v12.44H403.93V801.54l4.37-1.65-1.48-5.11H394.38l-1.4 5.11 4.04 1.65v12.52H372.31V801.54l6.34-1.65 8.4-29.24-5.35-1.65v-12.6h33.28l11.12 43.57Zm0 0" fill="#ffffff"/><path clip-path="url(#c)" d="M461.59 770.66v29.24h13.67l1.65-7.82h12.19v21.99H438.28V801.54l6.26-1.65V770.66l-6.26-1.65v-12.6h30.31v12.6Zm0 0" fill="#ffffff"/><path clip-path="url(#c)" d="M517.43 770.66v29.24H531.1l1.65-7.82h12.19v21.99H494.12V801.54l6.26-1.65V770.66l-6.26-1.65v-12.6h30.31v12.6Zm0 0" fill="#ffffff"/><path clip-path="url(#c)" d="M588.67 776.59l-1.65-6.01H573.19v9.39h13.83v9.89H573.19v10.05h13.83l1.65-6.01h12.19v20.18h-50.9V801.54l6.26-1.65V770.66l-6.26-1.65v-12.6h50.82v20.18Zm0 0" fill="#ffffff"/><path clip-path="url(#c)" d="M670.62 756.41v12.6l-6.26 1.65v43.4H647.72L628.7 781.94v17.95l6.26 1.65v12.52H608.02V801.54l6.26-1.65V770.66l-6.26-1.65v-12.6h24.71l17.13 30.8V770.66l-6.26-1.65v-12.6Zm0 0" fill="#ffffff"/><path clip-path="url(#c)" d="M709.9 776.59l-1.65-6.01H696.06l-2.39 1.9v25.44l2.47 1.98h9.55l2.55-2.14v-7.91h-7.74v-9.89h24.71v34.1H712.29l-1.65-4.53-5.44 4.53H689.97l-13.26-11.04V767.03l12.77-10.62h24.46l11.28 9.33v10.84Zm0 0" fill="#ffffff"/><path clip-path="url(#c)" d="M770.93 776.59l-1.65-6.01H755.45v9.39h13.84v9.89H755.45v10.05h13.84l1.65-6.01h12.19v20.18h-50.9V801.54l6.26-1.65V770.66l-6.26-1.65v-12.6h50.82v20.18Zm0 0" fill="#ffffff"/><path clip-path="url(#c)" d="M75.61 841.5c-.76-2.73-2.22-7.86-10.09-7.86-4.57 0-11.29 3.04-11.29 15.92 0 8.18 3.24 15.54 11.29 15.54 5.26 0 8.94-2.98 10.09-8.57h9.52c-1.9 9.9-8.37 16.81-19.79 16.81-12.12 0-20.81-8.18-20.81-23.92 0-15.92 9.2-24.04 20.93-24.04 13.64 0 19.16 9.39 19.67 16.11Zm0 0" fill="#ffffff"/><path clip-path="url(#c)" d="M121.74 846.64c4.95 0 7.36-1.71 7.36-6.22 0-2.41-1.08-5.96-6.66-5.96H110.58v12.18Zm-20.49-20.05h23.03c12.12 0 14.34 8.95 14.34 12.88 0 5.01-2.54 9.33-7.04 10.85 3.74 1.65 5.77 3.04 5.77 11.54 0 6.66 0 8.31 2.03 9.07v1.2H128.85c-.63-2.16-1.01-4.5-1.01-9.2 0-6.22-.38-8.63-7.42-8.63h-9.84v17.83h-9.32Zm0 0" fill="#ffffff"/><path clip-path="url(#c)" d="M164.71 872.14H155.2V826.59h9.52Zm0 0" fill="#ffffff"/><path clip-path="url(#c)" d="M211.54 841.5c-.76-2.73-2.22-7.86-10.09-7.86-4.57 0-11.29 3.04-11.29 15.92 0 8.18 3.24 15.54 11.29 15.54 5.26 0 8.95-2.98 10.09-8.57h9.52c-1.9 9.9-8.37 16.81-19.79 16.81-12.12 0-20.81-8.18-20.81-23.92 0-15.92 9.2-24.04 20.93-24.04 13.64 0 19.16 9.39 19.67 16.11Zm0 0" fill="#ffffff"/><path clip-path="url(#c)" d="M247.4 872.14h-9.52V826.59h9.52v18.52l17.38-18.52h12.31L258.5 845.24l19.67 26.9H265.92l-14.08-19.98-4.44 4.57Zm0 0" fill="#ffffff"/><path clip-path="url(#c)" d="M325.38 834.65H301.21v9.58h22.21v8.06H301.21v11.8h25.25v8.06H291.89V826.59h33.5Zm0 0" fill="#ffffff"/><path clip-path="url(#c)" d="M362.45 872.14h-9.52V834.65H339.17v-8.06h37.05v8.06H362.45Zm0 0" fill="#ffffff"/><path clip-path="url(#c)" d="M429.47 854.89h11.61l-5.64-18.02h-.13Zm-5.71 17.25H413.73l16.24-45.55h10.98L457 872.14H446.66l-2.92-9.39H426.93Zm0 0" fill="#ffffff"/><path clip-path="url(#c)" d="M498.5 841.5c-.76-2.73-2.22-7.86-10.09-7.86-4.57 0-11.29 3.04-11.29 15.92 0 8.18 3.24 15.54 11.29 15.54 5.27 0 8.95-2.98 10.09-8.57h9.52c-1.91 9.9-8.37 16.81-19.79 16.81-12.12 0-20.81-8.18-20.81-23.92 0-15.92 9.2-24.04 20.93-24.04 13.64 0 19.16 9.39 19.67 16.11Zm0 0" fill="#ffffff"/><path clip-path="url(#c)" d="M536.33 854.89h11.61l-5.64-18.02h-.13Zm-5.71 17.25H520.6l16.24-45.55h10.98l16.05 45.55H553.52l-2.92-9.39H533.79Zm0 0" fill="#ffffff"/><path clip-path="url(#c)" d="M588.18 864.28h9.26c7.74 0 10.34-7.8 10.34-15.29 0-13.45-6.41-14.53-10.47-14.53h-9.14Zm-9.33-37.68h20.11c15.35 0 18.53 13.07 18.53 21.7 0 9.77-3.87 23.85-18.91 23.85H578.85Zm0 0" fill="#ffffff"/><path clip-path="url(#c)" d="M667.05 834.65H642.88v9.58h22.21v8.06H642.88v11.8h25.25v8.06H633.55V826.59h33.5Zm0 0" fill="#ffffff"/><path clip-path="url(#c)" d="M728.48 872.14H719.6V834.08h-.13l-8.5 38.06h-9.33l-8.31-38.06h-.13v38.06h-8.88V826.59h13.9l8.25 35.91h.13l8.12-35.91h13.77Zm0 0" fill="#ffffff"/><path clip-path="url(#c)" d="M767.89 872.14h-9.52V854.95l-15.73-28.36h11.23l9.45 19.79 9.01-19.79h10.78l-15.23 28.49Zm0 0" fill="#ffffff"/><path clip-path="url(#c)" d="M662.59 202.17L651.82 167c-1.98-6.47-7.95-10.76-14.54-10.76l-2.3.17c-7.46 1.13-12.97 7.57-12.93 15.11l.02 4.98c-3.05-.86-6.22-1.73-9.6-2.63l.39-3.42V142.6c0-5.95-3.46-11.35-8.87-13.83-3.61-1.66-6.23-2.85-9.01-4.1-7.21-29.97-14.75-61.13-22.98-95.01-1.45-5.96-6.34-10.47-12.4-11.44-25.28-4.02-49.92-7.23-75.35-9.82l-1.03-.08c-4.26 0-7.9 1.39-10.71 3.92-3.2 2.89-5.02 6.99-5.02 11.29V39.07L453.55 27.04c-7.53-6.57-12.61-10.93-21.27-18.25-2.68-2.26-6.06-3.54-9.56-3.6-7.68-.13-13.5-.19-18.86-.19-10.83 0-20.5.25-35.71.92-3.44.15-6.73 1.47-9.33 3.73-10.63 9.27-16.53 14.5-26.32 23.36l-.04-.03c-10.07-7.4-15.29-11.16-25.37-18.3-2.58-1.83-5.66-2.79-8.79-2.79l-1.27.04c-22.21 2.79-33.33 4.54-54.71 8.58-3.07.58-5.9 2.1-8.08 4.34-11.38 11.69-17.25 17.83-28.52 29.85-2.65 2.82-4.12 6.54-4.12 10.41v80.63c0 5.27 2.73 10.17 7.21 12.94 6.08 3.76 10.54 6.55 15.07 9.43-43.04 10.49-68 20.9-68.5 21.11l-3.04 1.29c-5.24 2.22-8.81 7.19-9.24 12.86l-.25 3.29c-6.24 82.53 3.09 161.35 27.73 234.27 19.75 58.43 49.29 113.14 87.81 162.62 65.74 84.46 136.44 125.29 137.14 125.69l2.99 1.71c2.35 1.34 4.95 2 7.54 2 3.07 0 6.13-.93 8.74-2.76l2.82-1.98c37.03-25.98 70.67-54.02 99.97-83.32 22.17-22.17 42.34-45.58 59.96-69.57 2.53-3.44 4.83-6.64 7.04-9.8 5.91-8.42 11.68-17.18 17.16-26.05l2.59-4.24c2.01-3.33 3.77-6.3 5.38-9.09l3.17-5.58c1.59-2.84 3.23-5.84 5.01-9.18 2.42-4.53 4.67-8.9 6.69-12.98l6.64-13.92c2.09-4.56 4.06-9.04 5.88-13.34l7.7-19.44 1.23-3.33c1.13-3.1 2.21-6.17 3.21-9.13l2.14-6.46c1.39-4.3 2.75-8.69 4.03-13.09l.73-2.54c.7-2.46 1.38-4.91 2.03-7.35l.63-2.38c30.35-115.78 4.05-204.36 3.78-205.26"/><path clip-path="url(#c)" d="M525.4 388.79c-5.98 2.16-13.84 6.67-27.34 10.47-11.51 3.28-24.95 7.09-39.27 11.38-14.37 4.14-29.53 9.02-44.74 13.74l-22.9 6.55c-7.6 2.03-15.04 4.14-22.02 6.75-6.97 2.64-13.52 5.66-19.6 8.86-6.11 3.13-11.79 6.33-16.95 9.5-5.18 3.13-9.82 6.26-13.89 9.16-4.08 2.86-7.52 5.65-10.36 7.97l-.13.11c-8.16 6.7-6.4 11.26 4.06 10.68l.18-.01c3.74-.21 8.16-.48 13.1-1.14 4.96-.61 10.49-1.45 16.42-2.64 5.95-1.15 12.3-2.63 18.91-4.46 6.64-1.76 13.51-3.96 20.43-6.73 6.91-2.79 13.81-6.27 20.79-9.91l21.3-10.66c14.4-6.8 28.86-13.46 42.25-20.12 13.45-6.52 119.7-61.22 59.73-39.51" fill="#3daf2c"/><path clip-path="url(#c)" d="M306.62 442.84c5.95-2.24 14.86-3.93 27.58-9.81 10.88-4.99 23.57-10.83 37.24-16.87 13.61-6.19 28.3-12.34 42.93-18.64l21.65-9.91c7.1-3.4 14.12-6.64 21.12-9.18 7.01-2.52 13.95-4.48 20.65-6.01 6.68-1.6 13.08-2.85 19.06-3.79 5.97-.99 11.53-1.62 16.51-2.07 4.96-.48 9.39-.59 13.05-.68l.18 0c10.56-.22 12.16 4.41 3.84 10.76l-.14.1c-2.98 2.27-6.51 4.94-10.69 7.65-4.17 2.76-8.92 5.72-14.2 8.67-5.27 2.99-11.05 6-17.27 8.91-6.19 2.98-12.84 5.78-19.9 8.17-7.06 2.37-14.57 4.22-22.24 5.98l-23.11 5.74c-15.37 4.19-30.68 8.53-45.19 12.17-14.45 3.79-130.76 31.29-71.07 8.8" fill="#ed7800"/><path clip-path="url(#c)" d="M323.42 69.52c-13.84 1.34-20.75 2.14-34.54 4.03-1.47-5.19-2.21-7.78-3.68-12.96-10.17 1.44-15.25 2.23-25.39 3.97-2.13 2.07-3.2 3.1-5.32 5.18v56.99c2.2 1.39 3.3 2.08 5.51 3.48 10.06-1.72 15.1-2.51 25.2-3.93 1.47-5.6 2.21-8.39 3.68-13.98 13.79-1.89 20.7-2.69 34.54-4.03V131.7c-4.32 4.11-8.69 8.22-13.13 12.35L297.18 156.4c-20.45 2.6-30.64 4.2-50.95 8.01-11.8-7.67-17.69-11.41-29.43-18.68V65.1c11.3-12.05 16.97-17.98 28.33-29.64 21.18-4 31.82-5.67 53.15-8.36 10.04 7.1 15.07 10.73 25.13 18.12Zm0 0" fill="#ffffff"/><path clip-path="url(#c)" d="M447.69 66.42c-13.88-.64-20.82-.83-34.7-.92-1.49-5.4-2.23-8.09-3.71-13.49-10.25-.02-15.37.04-25.62.32-2.15 1.76-3.23 2.64-5.38 4.42v56.99c2.23 1.7 3.34 2.56 5.57 4.27 10.17-.27 15.26-.34 25.43-.31 1.48-5.39 2.23-8.08 3.71-13.45 13.89.09 20.83.28 34.7.92 0 9.37 0 14.06 0 23.43l-13.17 10.47c-4.45 3.49-8.85 6.98-13.18 10.48-20.57-.33-30.86-.2-51.41.68-11.95-9.38-17.92-13.97-29.85-22.93V46.67c11.48-10.41 17.23-15.52 28.73-25.54 21.44-.94 32.18-1.09 53.64-.71 10.1 8.54 15.15 12.89 25.24 21.72 0 9.72 0 14.58 0 24.29" fill="#ffffff"/><path clip-path="url(#c)" d="M516.53 90.99c6.57.83 9.85 1.28 16.41 2.23-3.32-12.07-4.97-18.1-8.29-30.13-3.25 11.15-4.87 16.73-8.12 27.91m81.11 51.61v27.86c-21.43-4.88-43.3-8.91-65.07-11.97 0-11.22 0-16.83 0-28.05 3.9-.91 5.86-1.35 9.76-2.22-1.32-4.78-1.99-7.17-3.31-11.95-11.12-1.7-16.68-2.46-27.84-3.8-1.26 4.43-1.88 6.64-3.14 11.07 3.62 1.9 5.43 2.85 9.05 4.79 0 11.22 0 16.83 0 28.05-22.14-2.81-33.25-3.86-55.5-5.25 0-11.22 0-16.83 0-28.05 5.71-1.12 8.56-1.66 14.27-2.68L494.74 56.6c-4.81-1.96-7.21-2.92-12.03-4.82 0-11.29 0-16.94 0-28.23 25.07 2.55 49.61 5.75 74.51 9.71l24.73 102.29c6.29 2.76 9.43 4.17 15.7 7.05" fill="#ffffff"/><path clip-path="url(#c)" d="M335.3 343.02l-.01.01.16-.06Zm0 0" fill="#ffffff"/><path clip-path="url(#c)" d="M397.19 409.96c-2.21-.01-4.42.22-6.56.79l-1.1.29-.15.04-.03 0-.27.05-.27.01-.96-.14c-.67-.23-.98-.37-1.26-.51l-3.03-1.94c-1.88-1.34-3.58-2.87-5.27-4.14l-5.11-3.47c-1.67-1.09-3.22-2.16-4.63-3.2l-3.73-2.97c-1.08-.93-1.97-1.79-2.68-2.51s-1.24-1.32-1.59-1.74l-.55-.63 1.08.95c.6.51.95.79 1.34 1.11 1.57 1.27 3.88 2.98 6.81 4.8l4.78 2.87c1.71 1.01 3.53 2.03 5.38 3.32l.87.62c.91.69 1.35 1.03 1.79 1.36l2.69 1.99c.91.64 1.84 1.28 2.77 1.74l.46.21.43.16.32.06-.01-.01.22-.02.05-.01.04-.01.22-.06.87-.24c2.33-.59 4.76-.82 7.1-.78l6.64.3c.52-.02 1.03-.02 1.53-.09l.5-.05.73-.13c.73-.11 1.17-.3 1.64-.42l.86-.34c.86-.37 1.29-.62 1.72-.85l.83-.47c1.24-.68 2.06-1.1 2.86-1.46 3.21-1.47 6.05-2.22 8.04-2.62 1-.21 1.79-.31 2.33-.38l.83-.08c0 0-1.14.23-3.06.86s-4.61 1.64-7.61 3.29l-2.28 1.36c-.4.26-.73.49-1.2.78l-.82.51c-2.36 1.29-4.56 1.83-6.83 1.91l-6.71-.12m-6.8-38.64l.09.03 1.94.1c1.37 5.01 1.47 5.7 1.19 6.17l-.61.45c-1.49-2.19-2.15-4.71-2.61-6.74m-.84-4.3l-.69.1c.02.14.18 1.19.5 2.76-.31-.49-.51-1.2-.75-2.14l-.15-.58-.09-.73c.2-.26.65-.56 2.13-.56l.27 0 .3.73c.51 1.81.85 3.07 1.15 4.14l-1.21-.04c-.55-.06-.68-.09-.8-.13-.45-2.09-.67-3.52-.67-3.56m-52.71 41.01c-1.48.43-4.26 0-4.26 0s-.09-8.78.61-10.95 2.09-5.39 2-7.56-.87-7.56-.87-7.56l2-2.35c0 0 1.3.78 2.09 3.74s2.26 5.56 4.69 8.6 3.74 4 4.61 4.26 2.78 3.22 2.78 3.22-12.17 8.17-13.64 8.6m94.55-30.18l.22-.21c.72 1.9 1.15 4.43 1.62 7.15l-2.94.83c.25-1.45 1.2-7.06 1.1-7.77m4.63.87c-.3 1.42-.74 3.37-1.27 5.47l-.56.23c-.72-2.42-1.13-4.78-1.44-6.56 1.02.27 2.38.73 3.27.85m.82-.06l.09-.11c.77.5 1.38 1.2 1.5 1.96.11.72-.26 1.45-1.11 2.16l-1.74 1.13c.49-1.98.89-3.79 1.17-5.11l.07-.02m-2.62 7.62l-.12-.71.29-.49-.05.77m-.82 2.87c-1.31-1.14-2.35-1.98-2.93-2.48l2.78-.79c.13.79.27 1.59.41 2.39l-.17.59m71.41 193.73l-.28.25c-1.36-1.37-2.57-2.85-3.74-4.29l.11-.09-2.32-2.61c-4.52-5.54-8.32-10.2-10.1-12.38l-.1.14-1.15 1.53c-.37.5-.75.99-1.16 1.47l-.81.97c-.82.98-1.28 1.42-1.71 1.9l-.87.94c-.91.88-1.38 1.32-1.84 1.74l-2.79 2.4c-.9.78-1.86 1.42-2.76 2.04l-.88.61c-.86.55-1.29.8-1.7 1.04l-2.24 1.29c-.69.33-1.3.62-1.8.86l-1.56.74.54-.32c1.42-.84 1.99-1.17 2.65-1.56l2.1-1.46c.38-.27.78-.55 1.19-.84l.79-.66c1.23-1.03 2.12-1.73 2.93-2.57l2.51-2.56c.41-.45.82-.91 1.23-1.37l.77-.97c.76-.97 1.17-1.44 1.52-1.95l.71-1.01c.71-.99 1.03-1.49 1.34-2l.63-1c.67-1.14 1.03-1.77 1.38-2.39-.33-1.07-1.17-2.78-3.15-5.52-4.52-6.26-6.84-9.5-9.73-10.66-1.13-.45-2.03-1.13-2.71-1.8-.96 0-2.09-.11-3.34-.49l-1.07-.39c-.94-.49-1.4-.72-1.88-.97l-2.96-1.43c-1.03-.47-2.1-.89-3.22-1.21l-3.43-.6c-1.17-.09-2.35.05-3.51.24l-1.15.23c-.83.27-1.11.35-1.39.43l-.54.2-.8.3-.78.32c-.76.33-1.26.55-1.74.78l-2.72 1.28c-3.37 1.59-5.62 2.65-5.62 2.65s2.15-1.25 5.37-3.13l2.6-1.52c.46-.27.94-.54 1.44-.81l.5-.27.78-.39c.54-.25.81-.38 1.09-.51l.57-.22c.85-.36 1.46-.52 2.07-.71l3.84-.6c1.31-.04 2.65.07 3.9.34l3.6 1.01c1.14.39 2.2.82 3.21 1.22l.97.4c.88.36 1.24.47 1.62.55l.64.11c.15-3.18-.6-12.59-4.17-22.45-4.4-12.17-7.21-22.62-7.84-27.17-.79-5.71-3.49-15.09-4.96-13.7-1.47 1.38-5.66 3.19-7.54 4.54l-6.21 3.73c-.55.29-1.13.55-1.71.82l-1.04.47-.1.04-.66.24c-1.19.43-2.37.89-3.6 1.31l-3.87 1.03c-1.3.27-2.62.46-3.93.7l-3.95.39c-.66.08-1.32.06-1.97.07l-1.31.01c-3.25-.04-5.81-.24-8.25-.6l-3.58-.63c-1.17-.2-2.29-.53-3.38-.8l-3.15-.94c-1.02-.3-1.97-.67-2.89-1.03l-.91-.35c-.87-.36-1.29-.55-1.7-.74l-2.29-1.11c-1.43-.71-2.6-1.48-3.56-2.1-.92-.69-1.65-1.21-2.08-1.66l-.68-.64.25.21c.9.83 1.66 1.32 2.59 1.96.98.58 2.17 1.28 3.62 1.94l2.31 1c.41.17.83.34 1.27.51l.89.3c1.38.47 2.34.8 3.36 1.06l3.15.8c1.09.22 2.2.51 3.36.65l3.54.47c2.41.26 4.92.35 7.45.28l1.27-.07c1.28-.07 1.91-.08 2.55-.18l3.81-.53c1.25-.28 2.51-.52 3.75-.82l3.59-1.11c1.19-.46 2.36-.97 3.53-1.45l.62-.26.09-.04.1-.05.82-.41c.54-.27 1.08-.54 1.6-.84l5.72-3.78c1.72-1.34 3.24-2.73 4.57-4.08l3.38-3.91c.93-1.23.29-10.89-3.62-22.02 0 0-.81-4.06-2.55-6.84s-.35-7.88-.46-8.92 5.33-16.92.81-27.34c-2.79-6.44-7.66-11.6-11.3-14.93l-.34-2c.32-1.09.61-2.18.88-3.24l2.4-1.46c1.05-.88 1.51-1.82 1.35-2.81-.17-1.05-1.03-1.97-1.98-2.68.23-1.8-.06-5.44-.06-5.44s5.68-1.16 2.9-3.82-4.29-3.59-5.33-9.62-3.71-20.62-23.4-18.31c-18.47 2.17-22.17 15.45-20.46 24.65l-.18-.01c-1.49 0-2.32.24-2.71.75l-.32.57.31 1.13c.42 1.66.75 2.87 1.74 3.42.47 2.13 1.17 4.87 2.14 7.53l-2.42 1.23c-1.39 1.04-8.11.12-10.08.93s-8.57 1.16-13.32 4.4-6.6 4.17-6.6 4.17l-1.74-2.43c0 0 .93-1.39-1.74-3.24s-3.13-2.55-3.13-2.55 6.84-4.17 6.6-5.21-1.51-7.99-2.55-10.31-2.09-3.59-2.09-3.59 1.51-1.39 2.9-1.04c.56.14 14.84-15.47 31.65-34.12l24.55-27.36c16.6-18.57 30.43-34.13 30.43-34.13s-.76-4.49-7.6-6.81-13.61-.83-13.61-.83-19.57 22.25-39.71 45.1L366.32 322c.01 0 .01-.01.02-.01-2.97 3.36-5.81 6.58-8.47 9.58l-.01 0-4.52 5.11c-7.92 8.95-13.26 14.94-13.38 14.97-.46.12-3.94-.93-8.11 3.48s-8.81 11.36-9.15 13.33c0 0-2.9.35-8.34 5.91s-9.5 10.31-9.27 12.86 1.16 8.23 3.36 10.89l-2.55 3.48c0 0 0 3.24 6.02 4.63l4.17-4.05c0 0 1.04 2.55 1.16 3.36s.81 6.26 1.04 10.77 6.03 14.83 7.76 16.22 8.23-.23 10.89-1.16 10.89-6.03 10.89-6.03 8.69 4.05 11.12 2.2 6.61-7.65 6.61-7.65l2.61 1.62c0 0 1.9 1.24 4.79 3l2.34 1.39c.41.23.84.47 1.26.68l.3.14.18.08.48.12c2.34.51 4.56.99 6.78 1.47 4.45.94 8.91 1.83 12.27 2.45s5.61.98 5.61.98-2.27-.15-5.68-.45-7.92-.96-12.47-1.28c-9.66-.7-12.88-4.73-13.66-5.1-.15-.07.9 1.95.76 1.88 1.43 4.19 3.29 10.62 3.83 14 .81 5.1 4.4 7.65 4.75 10.54s-1.27 7.65-.81 10.54-3.59 3.48-2.78 6.49-.35 4.05-3.59 7.88c-3.06 3.6-10.33 11.22-19.2 23.9l.48.5c.52.64.81 1.01 1.12 1.4l.58.82c.62.86.9 1.33 1.18 1.82l1.63 3.11c.23.56.46 1.13.7 1.71l.41 1.18.51 1.5.24.92c.15.62.33 1.23.46 1.85l.63 3.73c.08.62.15 1.23.23 1.83l.08 1.21c.07 1.18.12 1.76.13 2.32l.01 1.12c.01 1.08.01 1.6.01 2.11l-.05 1c-.07 1.41-.09 2.27-.16 3.03l-.14 1.42c-.16 1.63-.22 2.25-.22 2.25l.01-.62c.02-1.64.02-2.3.03-3.06l-.09-2.55c-.02-.46-.04-.95-.06-1.45l-.1-1.02c-.1-1.06-.15-1.6-.2-2.16l-.16-1.12c-.17-1.14-.26-1.73-.35-2.31l-.25-1.17c-.34-1.78-.73-2.95-1.05-4.13l-.9-2.58-.36-.83c-.25-.54-.45-1.1-.72-1.61l-.53-1.02c-.84-1.47-1.38-2.4-2-3.22l-.58-.82c-.63-.72-.9-1.09-1.21-1.41l-.6-.62c-.56-.58-.85-.82-1.11-1.06l-.19-.17c-3.39-1.9-13.93-6.96-16.37 1.42-2.04 7.02-5 14.95-6.57 19.03l1.99 1.58c.96.71 2.1 1.52 3.38 2.32l1.98 1.21c.68.41 1.39.78 2.1 1.18l2.15 1.1c.72.34 1.43.67 2.12 1l2.02.86c.64.28 1.27.49 1.84.72l1.09.43c.95.31 1.36.45 1.7.56l1.07.36-.4-.08c-1.05-.21-1.48-.29-1.97-.39l-1.04-.23c-1.2-.29-1.86-.42-2.54-.61l-2.15-.6c-.74-.23-1.5-.47-2.28-.72l-2.33-.83c-.77-.31-1.55-.59-2.3-.92l-2.2-.97c-1.42-.65-2.72-1.33-3.83-1.94l-1.96-1.16c-.57.21-1.28.72-1.74 1.95-.7 1.85-6.67 15.41-2.45 18.65v.06c0 .57 1.47 1.19 2.45 1.8l1.88 1.21c.68.41 1.34.78 2.05 1.18l2.12 1.1c.72.34 1.42.67 2.11 1l2.01.86c.64.28 1.26.49 1.83.72l1.09.43c.94.31 1.35.45 1.69.56l1.07.36-.4-.08c-1.06-.21-1.48-.29-1.97-.39l-1.04-.23c-1.2-.29-1.86-.42-2.54-.61l-2.15-.6c-.74-.23-1.5-.47-2.28-.72l-2.33-.83c-.77-.31-1.55-.59-2.3-.92l-2.2-.97c-.59-.27-1.15-.54-1.68-.81-.27 4.88-.82 14.67-1.47 23.64l-1.03 18.67c7.73 1.17 15.79 2.18 24.07 3.16l7.19.75c.05-.49.16-1.03.38-1.63 1.04-2.9 4.4-7.53 4.75-15.64s1.97-12.05 2.09-15.06 1.74-9.97 1.85-12.05 1.27-6.14 3.82-6.26 22.25-11.47 26.88-14.83 19.35-13.67 22.59-12.98 16.57 16.92 21.9 27.58c0 0-4.87 5.1 1.39 12.17s8.11 9.04 8.11 9.04-1.74.93 2.55 5.56 6.02 8.34 7.76 9.39 6.26 1.85 6.26 1.85 4.85 5.59 10.95 12.6l4.59-.49c2.65-.27 5.26-.64 7.85-.95l7.7-1c2.54-.36 5.05-.71 7.52-1.06l7.33-1.16c1.8-.29 3.57-.59 5.33-.9Zm0 0" fill="#ffffff"/><path clip-path="url(#c)" d="M512.45 464.58c6.99 0 12.66-5.67 12.66-12.66s-5.67-12.66-12.66-12.66-12.66 5.67-12.66 12.66 5.67 12.66 12.66 12.66" fill="#ffffff"/><path clip-path="url(#c)" d="M166.52 210.48c-12.93 178.38 52.91 304.05 110.55 378.18 57.07 73.39 117.55 112.09 128.54 118.78 35.22-24.85 67.18-51.55 95.01-79.38 21.38-21.39 40.76-43.87 57.65-66.88l6.74-9.37c5.65-8.06 11.16-16.43 16.38-24.87l2.48-4.06c1.75-2.89 3.47-5.79 5.13-8.67l3.03-5.32c1.64-2.92 3.22-5.83 4.78-8.74 2.29-4.29 4.43-8.45 6.37-12.36l6.31-13.24c2.01-4.38 3.89-8.65 5.59-12.68l7.3-18.42c.4-1.07.79-2.14 1.18-3.21l3.05-8.66c.7-2.06 1.37-4.1 2.03-6.14l3.81-12.36.71-2.47c.67-2.33 1.31-4.65 1.92-6.95l.6-2.27c18.71-71.36 14.82-131.13 9.79-164.24-6.77 141.94-67.03 242.32-118.2 302.8-59.15 69.9-119.37 103.1-119.97 103.42l-1.93 1.05-1.7-1.39c-72.25-59.39-125.15-129.74-157.24-209.08l-6.95-18.26-.61-1.74c-.84-2.39-1.66-4.76-2.45-7.12l-.72-2.18c-.76-2.31-1.49-4.59-2.21-6.86l-.58-1.84c-1.78-5.77-3.44-11.53-4.93-17.13l-.19-.71c-.66-2.49-1.29-4.96-1.9-7.41l-.44-1.79c-.52-2.14-1.02-4.26-1.51-6.37l-.4-1.74c-.52-2.3-1.01-4.58-1.48-6.83l-.19-.87c-1.04-5.04-2.01-10.16-2.87-15.21l-.2-1.22c-.34-2-.66-3.98-.96-5.93l-.23-1.54c-.29-1.92-.56-3.82-.82-5.69l-.16-1.17c-.6-4.45-1.13-8.9-1.58-13.21l-.03-.32c-.21-2.08-.39-3.92-.55-5.72l-.11-1.23c-.14-1.6-.26-3.17-.38-4.71l-.08-1.15c-.12-1.72-.23-3.4-.33-5.04l-.02-.38c-.21-3.63-.35-7.04-.44-10.25l-.02-.87c-.04-1.27-.06-2.51-.08-3.72l-.01-.96c-.02-1.21-.03-2.38-.03-3.52l0-.65c0-2.71.03-5.2.08-7.45l.01-.39c.03-1 .05-1.89.08-2.74l.26-5.55c.1-1.61.18-2.8.26-3.72l.02-.28.45-4.21 2.14-.57c66.35-17.77 130.06-27.68 189.38-29.46l18.26-.29c8.21.01 16.43.14 24.38.46l.23.01c28.41 1.14 54.71 4.28 78.14 9.36l11.17 2.63c3.05.78 5.89 1.56 8.53 2.34l2.33.7c1.43.44 2.6.82 3.6 1.15l1.36.46c.31.11.59.21.83.29l54.37-35.69c-2.11-.57-4.22-1.14-6.32-1.69l-4.16-1.07c-3.03-.78-6.04-1.54-9.05-2.28l-4.73-1.14c-2.86-.68-5.72-1.34-8.57-1.99l-.58-.13c-1.33-.3-2.67-.6-4-.9l-12.87-2.72c-8.44-1.71-17.06-3.29-25.59-4.72l-3.21-.52c-3.17-.52-6.33-1.01-9.47-1.49l-3.7-.54c-3.06-.44-6.1-.87-9.14-1.27l-3.37-.44c-3.45-.44-6.88-.86-10.3-1.25l-1.9-.22c-8.2-.92-16.56-1.72-24.83-2.38l-1.51-.11c-3.53-.27-7.05-.52-10.54-.75l-2.13-.13c-3.41-.21-6.8-.39-10.17-.55l-1.68-.08c-11.17-.51-22.27-.79-33.01-.82l-2.26 0c-132.42 0-225.29 34.51-239.28 40.02" fill="#ffffff"/><path clip-path="url(#c)" d="M648.04 206.63l-10.77-35.17.16 36.78c.67 154.54-63.04 262.51-116.6 325.88-8.33 9.86-16.68 18.96-24.89 27.34l1.34 1.74c8.3-8.48 16.76-17.7 25.2-27.68 53.8-63.65 117.78-172.09 117.11-327.29l-.1-22.07 6.46 21.1c.26.83 25.17 84.58-3.97 195.75l-.61 2.31c-.62 2.33-1.28 4.68-1.95 7.04l-.72 2.5c-1.22 4.19-2.52 8.41-3.86 12.54l-2.07 6.24c-.99 2.91-2.03 5.84-3.09 8.79l-1.2 3.25c-2.36 6.35-4.86 12.64-7.41 18.69-1.73 4.09-3.64 8.42-5.67 12.86l-6.4 13.43c-1.97 3.97-4.15 8.18-6.46 12.53l-4.84 8.86c-1.01 1.79-2.03 3.59-3.07 5.39l-5.2 8.78c-.83 1.37-1.67 2.74-2.51 4.12-5.28 8.55-10.86 17.03-16.59 25.19l-6.82 9.49c-17.09 23.28-36.68 46.01-58.23 67.57-28.61 28.61-61.45 55.97-97.66 81.38l-1.69 1.19-1.79-1.02c-.68-.39-68.49-39.64-132.04-121.27-37.32-47.94-65.94-100.93-85.06-157.51-23.89-70.7-32.93-147.21-26.87-227.39l.15-1.98 1.83-.77c.98-.42 100.17-41.66 245.92-41.27 10.83.03 22.03.31 33.28.83l1.7.08c3.4.16 6.81.35 10.25.56l2.15.13c3.52.23 7.06.48 10.63.75l1.52.11c8.34.66 16.76 1.47 25.04 2.4l1.92.23c3.44.4 6.9.81 10.38 1.26l3.4.45c3.06.41 6.13.83 9.22 1.28l3.73.55c3.17.48 6.35.98 9.55 1.5l3.24.52c8.61 1.44 17.29 3.04 25.81 4.76l3.65.76c3.1.64 6.2 1.3 9.33 1.98l4.61 1.03c2.87.65 5.76 1.32 8.65 2.01l4.77 1.15c3.03.74 6.07 1.51 9.12 2.3l4.19 1.08c4.43 1.17 8.88 2.37 13.35 3.63l6.87 1.94L555.3 240.6l-1.86-.71c-.51-.19-1.05-.39-1.76-.64l-1.24-.43c-1.15-.39-2.29-.75-3.6-1.16l-2.1-.64c-2.77-.82-5.53-1.58-8.39-2.31l-10.99-2.59c-23.12-5.01-49.03-8.1-77.07-9.22l-.23-.01-24.73-.45c-5.79.01-11.67.11-17.46.28-58.16 1.74-120.63 11.38-185.7 28.66-.07.87-.15 1.97-.23 3.32l-.26 5.55c-.03.82-.05 1.69-.08 2.6l-.01.43-.08 7.94c0 1.11.01 2.26.03 3.45l.01.92c.02 1.2.05 2.42.08 3.67l.02.86c.09 3.15.23 6.51.43 10.07l.02.38.4 6.08c.11 1.52.24 3.06.37 4.64l.1 1.2c.16 1.77.33 3.58.52 5.43l.05.5c.44 4.26.96 8.63 1.55 13.03l.16 1.15c.25 1.84.52 3.71.81 5.61l.23 1.52c.3 1.92.61 3.87.95 5.84l.2 1.2c.85 4.98 1.8 10.03 2.83 14.99l.18.86c.46 2.23.95 4.47 1.46 6.74l.39 1.72c.48 2.07.97 4.16 1.49 6.28l.43 1.76c.6 2.41 1.22 4.85 1.88 7.3l.18.71c1.48 5.52 3.11 11.2 4.87 16.89l.57 1.82c.7 2.24 1.43 4.49 2.17 6.76l.71 2.15c.78 2.32 1.59 4.67 2.42 7.02l.6 1.72c2.15 6.01 4.46 12.07 6.86 18.01 16.29 40.29 38.08 78.21 65.07 113.55l-.74-4.43c-26.66-35.02-46.2-70.06-62.32-109.94l-6.82-17.91-.6-1.72c-.83-2.34-1.63-4.67-2.4-6.98l-.71-2.15c-.74-2.26-1.47-4.5-2.16-6.73l-.57-1.81c-1.75-5.66-3.38-11.32-4.84-16.79l-.19-.72c-.65-2.45-1.27-4.87-1.86-7.26l-.43-1.76c-.51-2.1-1.01-4.19-1.48-6.25l-.39-1.71c-.51-2.26-.99-4.49-1.46-6.72l-.18-.84c-1.02-4.92-1.97-9.94-2.82-14.91l-.2-1.2c-.33-1.96-.65-3.91-.94-5.81l-.23-1.51c-.28-1.89-.55-3.75-.8-5.58l-.16-1.14c-.59-4.38-1.11-8.74-1.55-12.95l-.05-.5c-.19-1.84-.36-3.64-.51-5.4l-.1-1.2c-.14-1.57-.26-3.1-.37-4.61l-.08-1.12c-.12-1.68-.23-3.32-.32-4.94l-.02-.36c-.2-3.54-.34-6.88-.43-10.01l-.02-.86c-.04-1.24-.06-2.46-.08-3.64l-.01-.92c-.02-1.18-.02-2.32-.03-3.43l0-.63c0-2.64.03-5.05.08-7.24l.01-.44c.02-.9.05-1.77.08-2.56l.26-5.52c.04-.64.08-1.22.12-1.75 64.37-16.98 126.17-26.47 183.72-28.19l18-.28c8.64.01 16.38.15 23.64.43l.63.02c27.91 1.12 53.72 4.2 76.7 9.18l10.91 2.57c2.87.74 5.6 1.49 8.3 2.29l2.08.63c1.3.4 2.42.77 3.54 1.14l1.23.42c.7.24 1.22.44 1.7.61l2.89 1.11 74.02-48.59-11.45-3.23c-4.48-1.26-8.94-2.47-13.4-3.64l-4.19-1.07c-3.06-.79-6.11-1.56-9.15-2.3l-4.79-1.15c-2.9-.69-5.79-1.36-8.67-2.01l-.58-.13c-1.35-.3-2.7-.61-4.05-.91l-13.02-2.75c-8.56-1.73-17.27-3.33-25.89-4.78l-3.23-.52c-3.2-.52-6.4-1.03-9.58-1.5l-3.73-.55c-3.1-.45-6.18-.88-9.24-1.28l-3.4-.45c-3.49-.45-6.96-.87-10.41-1.27l-1.93-.23c-8.32-.93-16.77-1.74-25.12-2.41l-1.51-.11c-3.57-.28-7.13-.53-10.66-.76l-2.15-.13c-3.45-.21-6.87-.4-10.28-.56l-1.7-.08c-11.29-.52-22.52-.79-33.38-.83l-2.09 0c-145.38 0-243.71 41.03-244.69 41.45l-3.04 1.29-.25 3.3c-6.09 80.48 2.99 157.27 26.98 228.25 19.2 56.81 47.93 110.02 85.4 158.15 63.73 81.87 131.99 121.43 132.68 121.82l2.99 1.71 2.82-1.98c36.32-25.48 69.27-52.94 97.95-81.62 21.62-21.63 41.29-44.45 58.45-67.82l6.85-9.53c5.74-8.19 11.34-16.7 16.66-25.3l2.52-4.13c1.78-2.94 3.53-5.89 5.22-8.82l3.08-5.41c1.67-2.98 3.28-5.94 4.86-8.9 2.34-4.39 4.53-8.62 6.49-12.59l6.43-13.49c2.03-4.44 3.95-8.79 5.7-12.92l7.44-18.78 1.2-3.27c1.07-2.96 2.11-5.91 3.11-8.83l2.07-6.27c1.34-4.12 2.64-8.36 3.88-12.61l.72-2.51c.68-2.37 1.33-4.74 1.96-7.08l.62-2.32c29.26-111.64 4.21-196.1 3.95-196.94" fill="#ffffff"/><path clip-path="url(#c)" d="M356.88 587.75l-.36 2.72c15.53 16.26 31.58 31.17 49.58 46.08 6.49-3.79 29.01-17.55 57.55-41.92l-1.69-1.41c-26.68 22.74-48.01 36.14-55.64 40.68-17.69-14.72-34.16-30.12-49.43-46.15" fill="#ffffff"/></g></g></svg>