<?xml version="1.0" encoding="UTF-8" standalone="no"?><svg xmlns="http://www.w3.org/2000/svg" xmlns:xlink="http://www.w3.org/1999/xlink" fill="#000000" height="500" preserveAspectRatio="xMidYMid meet" version="1" viewBox="0.0 0.0 500.0 500.0" width="500" zoomAndPan="magnify"><g fill="#ffffff" id="change1_1"><path d="M 249.996094 343.027344 C 198.703125 343.027344 156.972656 301.292969 156.972656 249.996094 C 156.972656 198.699219 198.703125 156.96875 249.996094 156.96875 C 301.292969 156.96875 343.027344 198.699219 343.027344 249.996094 C 343.027344 301.292969 301.292969 343.027344 249.996094 343.027344 Z M 250 124.089844 C 180.570312 124.089844 124.089844 180.574219 124.089844 250 C 124.089844 319.425781 180.570312 375.910156 250 375.910156 C 319.429688 375.910156 375.910156 319.425781 375.910156 250 C 375.910156 180.574219 319.429688 124.089844 250 124.089844" fill="inherit"/><path d="M 441.992188 103.347656 C 441.992188 110.03125 436.523438 115.496094 429.84375 115.496094 L 394.90625 115.496094 C 388.226562 115.496094 382.757812 110.03125 382.757812 103.347656 L 382.757812 68.410156 C 382.757812 61.730469 388.226562 56.261719 394.90625 56.261719 L 429.84375 56.261719 C 436.523438 56.261719 441.992188 61.730469 441.992188 68.410156 Z M 250 411.519531 C 160.9375 411.519531 88.480469 339.066406 88.480469 250 C 88.480469 160.933594 160.9375 88.480469 250 88.480469 C 339.0625 88.480469 411.519531 160.933594 411.519531 250 C 411.519531 339.066406 339.0625 411.519531 250 411.519531 Z M 415.808594 0 L 84.191406 0 C 37.769531 0 0 37.769531 0 84.1875 L 0 415.804688 C 0 462.230469 37.769531 500 84.191406 500 L 415.808594 500 C 462.230469 500 500 462.230469 500 415.804688 L 500 84.1875 C 500 37.769531 462.230469 0 415.808594 0" fill="inherit"/></g></svg>